<svg width="160" height="30" viewBox="0 0 160 30" fill="none" xmlns="http://www.w3.org/2000/svg">
<path d="M14.7849 0.501049C6.7762 0.501049 0.2854 6.99291 0.2854 15.0005C0.2854 15.1578 0.287497 15.314 0.292738 15.4701C0.294835 15.5351 0.296931 15.5991 0.300076 15.6641C0.418529 18.2879 1.23407 20.7303 2.56536 22.81C2.79597 23.1696 3.04231 23.5187 3.30333 23.8562C3.54757 24.1717 3.80335 24.4778 4.07275 24.7713C4.98787 25.7755 6.04242 26.6498 7.20598 27.3637C8.58968 28.2138 10.1275 28.8375 11.768 29.1845C12.7408 29.391 13.7492 29.499 14.7838 29.499C15.8185 29.499 16.8269 29.391 17.7997 29.1845C19.4402 28.8375 20.978 28.2127 22.3617 27.3626C23.5273 26.6466 24.584 25.7703 25.5012 24.765C26.0515 24.1612 26.5505 23.5113 26.9939 22.8216C28.2214 20.9106 29.0118 18.6914 29.2256 16.3067C29.2539 15.9922 29.2718 15.6735 29.2791 15.3538C29.2822 15.2353 29.2833 15.1179 29.2833 14.9995C29.2833 6.99186 22.7915 0.5 14.7838 0.5L14.7849 0.501049ZM6.73846 21.1485C6.61162 21.2282 6.47954 21.3079 6.34327 21.3854C6.47954 21.3068 6.61058 21.2272 6.73846 21.1485Z" fill="#5F61E4"/>
<path opacity="0.4" d="M29.28 15.3559C29.2727 15.6756 29.2549 15.9943 29.2266 16.3088C29.0138 18.6936 28.2223 20.9117 26.9948 22.8237C26.5525 23.5135 26.0535 24.1634 25.5021 24.7661C22.9412 23.8143 20.8783 22.3897 19.7105 21.4756C19.3352 21.1821 19.5239 20.5815 19.9988 20.5521C28.1668 20.0563 28.7989 15.0226 29.0484 14.2678C29.1343 14.6106 29.2119 14.9743 29.279 15.3559H29.28Z" fill="#1C235E"/>
<path opacity="0.4" d="M9.88217 21.4756C8.71231 22.3907 6.64201 23.8205 4.07273 24.7734C3.80333 24.4799 3.54651 24.1738 3.30332 23.8583C3.0423 23.5207 2.79596 23.1716 2.56534 22.8121C1.23406 20.7323 0.417467 18.2899 0.300062 15.6661C0.296918 15.6022 0.294821 15.5372 0.292725 15.4722C0.365054 15.0498 0.447866 14.6451 0.543258 14.2688C0.792743 15.0235 1.42484 20.0573 9.59285 20.5531C10.0688 20.5825 10.2574 21.1831 9.88217 21.4766V21.4756Z" fill="#1C235E"/>
<path d="M24.5011 12.5884C23.7201 7.87233 21.3867 6.91947 18.8007 7.54423C17.0438 7.96773 16.0626 10.3326 15.6622 11.9742C15.5898 12.2666 15.5385 12.536 15.5018 12.7666L14.7848 12.1146L14.7481 12.8578L14.6915 14.0036L14.4577 18.7417L14.2135 23.6926C20.8584 23.6978 24.5273 18.4859 24.6017 14.0036C24.6111 13.5214 24.5765 13.0465 24.5011 12.5895V12.5884ZM14.747 12.1419L14.0059 12.6943C13.9944 12.4773 13.9703 12.2278 13.9336 11.9553C13.7072 10.2812 12.9661 7.77589 11.2364 7.17524C8.72272 6.30205 6.30754 7.02219 5.0664 11.6398C4.86619 12.384 4.77813 13.1828 4.8012 14.0036C4.92279 18.2689 8.06756 23.0961 14.2114 23.6926L14.4556 18.7417L14.6894 14.0036L14.746 12.8578L14.7827 12.1146L14.746 12.1419H14.747Z" fill="#FFF5F5"/>
<path d="M9.22683 12.8548C10.2353 12.8831 11.077 12.0896 11.1053 11.0812C11.1347 10.0727 10.3401 9.23309 9.33165 9.20374C8.32323 9.17543 7.48148 9.96897 7.45318 10.9774C7.42383 11.9858 8.21841 12.8255 9.22683 12.8548Z" fill="#444444"/>
<path d="M10.8738 10.7865C11.378 10.8011 11.7984 10.4039 11.813 9.89965C11.8277 9.39544 11.4304 8.97508 10.9262 8.96145C10.422 8.94678 10.0016 9.34408 9.98697 9.84829C9.97229 10.3525 10.3696 10.7728 10.8738 10.7865Z" fill="#FFF5F5"/>
<path d="M20.438 13.1828C21.4464 13.2111 22.2882 12.4176 22.3165 11.4092C22.3458 10.4007 21.5513 9.56109 20.5428 9.53174C19.5344 9.50344 18.6927 10.297 18.6644 11.3054C18.635 12.3138 19.4296 13.1535 20.438 13.1828Z" fill="#444444"/>
<path d="M22.0847 11.1135C22.5889 11.1282 23.0093 10.7309 23.024 10.2267C23.0386 9.72247 22.6414 9.30211 22.1371 9.28848C21.6329 9.2738 21.2126 9.6711 21.1979 10.1753C21.1832 10.6795 21.5805 11.0999 22.0847 11.1135Z" fill="#FFF5F5"/>
<path d="M11.3727 13.3557L10.1535 14.6702C9.71223 15.1461 9.81391 15.9061 10.3653 16.2478L14.2019 18.6274C14.3654 18.7291 14.5541 18.7825 14.747 18.7825C14.9399 18.7825 15.1286 18.7291 15.2921 18.6274L19.1287 16.2447C19.6801 15.9019 19.7828 15.1419 19.3405 14.666L18.1213 13.3536C16.3005 11.3923 13.1935 11.3934 11.3727 13.3567V13.3557Z" fill="#FF8B2E"/>
<path d="M19.3415 14.6661L18.1224 13.3536C17.2114 12.3725 15.9797 11.8829 14.748 11.8829V18.7826C14.9409 18.7826 15.1296 18.7291 15.2931 18.6274L19.1298 16.2447C19.6811 15.902 19.7839 15.142 19.3426 14.6661H19.3415Z" fill="#D97626"/>
<path d="M17.1077 20.6179H12.3875V25.8256H17.1077V20.6179Z" fill="#333333"/>
<path d="M12.3876 19.6254V21.6118C12.3876 22.9808 11.2786 24.0909 9.9085 24.0909C8.53843 24.0909 7.43042 22.9819 7.43042 21.6118V19.6254C7.43042 18.2563 8.53947 17.1462 9.9085 17.1462C11.2775 17.1462 12.3876 18.2553 12.3876 19.6254Z" fill="#333333"/>
<path d="M13.5836 23.2858H6.23535V25.8267H13.5836V23.2858Z" fill="#444444"/>
<path d="M9.90949 26.9597C11.9387 26.9597 13.5836 25.3147 13.5836 23.2856C13.5836 21.2564 11.9387 19.6115 9.90949 19.6115C7.88032 19.6115 6.23535 21.2564 6.23535 23.2856C6.23535 25.3147 7.88032 26.9597 9.90949 26.9597Z" fill="#444444"/>
<path d="M9.90949 29.5C11.9387 29.5 13.5836 27.855 13.5836 25.8259C13.5836 23.7967 11.9387 22.1517 9.90949 22.1517C7.88032 22.1517 6.23535 23.7967 6.23535 25.8259C6.23535 27.855 7.88032 29.5 9.90949 29.5Z" fill="#333333"/>
<path d="M9.90938 28.3667C11.3127 28.3667 12.4504 27.2291 12.4504 25.8258C12.4504 24.4224 11.3127 23.2848 9.90938 23.2848C8.50604 23.2848 7.36841 24.4224 7.36841 25.8258C7.36841 27.2291 8.50604 28.3667 9.90938 28.3667Z" fill="#DEE1FF"/>
<path d="M22.0641 19.6252V21.6117C22.0641 22.9807 20.9551 24.0908 19.585 24.0908C18.2149 24.0908 17.1069 22.9818 17.1069 21.6117V19.6252C17.1069 18.2562 18.216 17.1461 19.585 17.1461C20.954 17.1461 22.0641 18.2552 22.0641 19.6252Z" fill="#333333"/>
<path d="M23.2601 23.2859H15.9119V25.8269H23.2601V23.2859Z" fill="#444444"/>
<path d="M19.586 26.9598C21.6152 26.9598 23.2601 25.3149 23.2601 23.2857C23.2601 21.2565 21.6152 19.6116 19.586 19.6116C17.5568 19.6116 15.9119 21.2565 15.9119 23.2857C15.9119 25.3149 17.5568 26.9598 19.586 26.9598Z" fill="#444444"/>
<path d="M19.586 29.4999C21.6152 29.4999 23.2601 27.8549 23.2601 25.8257C23.2601 23.7966 21.6152 22.1516 19.586 22.1516C17.5568 22.1516 15.9119 23.7966 15.9119 25.8257C15.9119 27.8549 17.5568 29.4999 19.586 29.4999Z" fill="#333333"/>
<path d="M22.1269 25.8269C22.1269 26.2084 22.043 26.5701 21.8931 26.894C21.7967 27.1015 21.674 27.2934 21.5283 27.4653C21.2589 27.785 20.9119 28.0355 20.5167 28.1917C20.2285 28.3049 19.915 28.3678 19.5869 28.3678C19.3731 28.3678 19.1655 28.3416 18.9664 28.2913C17.8626 28.0146 17.0449 27.0156 17.0449 25.8269C17.0449 25.3971 17.1518 24.9925 17.3405 24.6371C17.5879 24.1696 17.9789 23.788 18.4527 23.5521C18.7934 23.3813 19.1792 23.2859 19.5859 23.2859C19.6131 23.2859 19.6404 23.2859 19.6677 23.2869C19.8993 23.2943 20.1236 23.3331 20.3364 23.3981C21.3721 23.7178 22.1258 24.6843 22.1258 25.8258L22.1269 25.8269Z" fill="#DEE1FF"/>
<path d="M20.5158 28.1904C20.2275 28.3036 19.9141 28.3665 19.586 28.3665C19.3722 28.3665 19.1646 28.3403 18.9654 28.29L17.3396 24.6368C17.587 24.1693 17.978 23.7877 18.4518 23.5519L20.5148 28.1915L20.5158 28.1904Z" fill="white"/>
<path d="M21.8921 26.8927C21.7956 27.1003 21.673 27.2921 21.5273 27.464L19.6687 23.2867C19.9004 23.2941 20.1247 23.3329 20.3375 23.3979L21.8931 26.8927H21.8921Z" fill="white"/>
<path d="M10.8088 28.1904C10.5205 28.3036 10.2071 28.3665 9.87898 28.3665C9.66514 28.3665 9.45758 28.3403 9.25841 28.29L7.63257 24.6368C7.87996 24.1693 8.27096 23.7877 8.74477 23.5519L10.8077 28.1915L10.8088 28.1904Z" fill="white"/>
<path d="M12.1853 26.8927C12.0888 27.1003 11.9662 27.2921 11.8205 27.464L9.96191 23.2867C10.1936 23.2941 10.4179 23.3329 10.6307 23.3979L12.1863 26.8927H12.1853Z" fill="white"/>
<path d="M19.7105 19.5941C21.1539 20.7252 23.9695 22.6351 27.3984 23.4685C27.7894 23.5639 28.2003 23.3961 28.4047 23.0492C29.8743 20.5596 29.8429 15.5426 29.0494 12.3853C28.8009 13.14 28.1678 18.1737 19.9998 18.6696C19.5239 18.6989 19.3352 19.2996 19.7105 19.5931V19.5941Z" fill="#737AEF"/>
<path d="M9.88108 19.5941C8.43763 20.7252 5.62202 22.6351 2.19317 23.4685C1.80217 23.5639 1.39126 23.3961 1.18685 23.0492C-0.282807 20.5596 -0.251359 15.5426 0.542171 12.3853C0.790607 13.14 1.42375 18.1737 9.59176 18.6696C10.0677 18.6989 10.2564 19.2996 9.88108 19.5931V19.5941Z" fill="#737AEF"/>
<path d="M45.1246 16.221H41.0206V21H38.3386V9.12H41.0206V13.872H45.1246V9.12H47.7976V21H45.1246V16.221ZM49.9336 21V13.611H52.6696V21H49.9336ZM51.3376 12.09C50.9056 12.09 50.5396 11.94 50.2396 11.64C49.9396 11.334 49.7896 10.971 49.7896 10.551C49.7896 10.131 49.9396 9.768 50.2396 9.462C50.5456 9.15 50.9116 8.994 51.3376 8.994C51.6196 8.994 51.8776 9.066 52.1116 9.21C52.3456 9.348 52.5346 9.534 52.6786 9.768C52.8226 10.002 52.8946 10.263 52.8946 10.551C52.8946 10.971 52.7416 11.334 52.4356 11.64C52.1296 11.94 51.7636 12.09 51.3376 12.09ZM57.0566 21H54.3206V13.611H57.0566V14.754H57.0116C57.0596 14.616 57.1766 14.442 57.3626 14.232C57.5486 14.016 57.8096 13.824 58.1456 13.656C58.4816 13.482 58.8926 13.395 59.3786 13.395C59.7206 13.395 60.0356 13.449 60.3236 13.557C60.6116 13.659 60.8216 13.758 60.9536 13.854L59.8916 16.077C59.8076 15.975 59.6576 15.87 59.4416 15.762C59.2316 15.648 58.9676 15.591 58.6496 15.591C58.2836 15.591 57.9806 15.684 57.7406 15.87C57.5066 16.056 57.3326 16.281 57.2186 16.545C57.1106 16.809 57.0566 17.058 57.0566 17.292V21ZM63.6759 17.886C63.6939 18.15 63.7779 18.384 63.9279 18.588C64.0779 18.792 64.2849 18.954 64.5489 19.074C64.8189 19.188 65.1369 19.245 65.5029 19.245C65.8509 19.245 66.1629 19.209 66.4389 19.137C66.7209 19.065 66.9639 18.975 67.1679 18.867C67.3779 18.759 67.5399 18.648 67.6539 18.534L68.7159 20.226C68.5659 20.388 68.3529 20.547 68.0769 20.703C67.8069 20.853 67.4499 20.976 67.0059 21.072C66.5619 21.168 66.0009 21.216 65.3229 21.216C64.5069 21.216 63.7809 21.063 63.1449 20.757C62.5089 20.451 62.0079 20.001 61.6419 19.407C61.2759 18.813 61.0929 18.087 61.0929 17.229C61.0929 16.509 61.2489 15.861 61.5609 15.285C61.8789 14.703 62.3379 14.244 62.9379 13.908C63.5379 13.566 64.2609 13.395 65.1069 13.395C65.9109 13.395 66.6069 13.542 67.1949 13.836C67.7889 14.13 68.2449 14.568 68.5629 15.15C68.8869 15.726 69.0489 16.446 69.0489 17.31C69.0489 17.358 69.0459 17.454 69.0399 17.598C69.0399 17.742 69.0339 17.838 69.0219 17.886H63.6759ZM66.4749 16.455C66.4689 16.263 66.4179 16.074 66.3219 15.888C66.2259 15.696 66.0819 15.54 65.8899 15.42C65.6979 15.294 65.4519 15.231 65.1519 15.231C64.8519 15.231 64.5969 15.291 64.3869 15.411C64.1829 15.525 64.0269 15.675 63.9189 15.861C63.8109 16.047 63.7509 16.245 63.7389 16.455H66.4749ZM74.7828 8.904C75.5208 8.904 76.1658 8.985 76.7178 9.147C77.2698 9.309 77.7138 9.48 78.0498 9.66C78.3858 9.84 78.5898 9.96 78.6618 10.02L77.3658 12.189C77.2698 12.117 77.1048 12.012 76.8708 11.874C76.6428 11.736 76.3698 11.613 76.0518 11.505C75.7398 11.397 75.4128 11.343 75.0708 11.343C74.6088 11.343 74.2338 11.427 73.9458 11.595C73.6638 11.757 73.5228 12 73.5228 12.324C73.5228 12.546 73.5978 12.747 73.7478 12.927C73.9038 13.101 74.1378 13.269 74.4498 13.431C74.7678 13.587 75.1698 13.758 75.6558 13.944C76.0998 14.106 76.5168 14.298 76.9068 14.52C77.2968 14.742 77.6388 15.006 77.9328 15.312C78.2328 15.612 78.4698 15.96 78.6438 16.356C78.8178 16.752 78.9048 17.202 78.9048 17.706C78.9048 18.306 78.7818 18.828 78.5358 19.272C78.2898 19.71 77.9538 20.073 77.5278 20.361C77.1078 20.649 76.6278 20.862 76.0878 21C75.5538 21.144 74.9988 21.216 74.4228 21.216C73.6068 21.216 72.8748 21.123 72.2268 20.937C71.5848 20.751 71.0658 20.55 70.6698 20.334C70.2738 20.118 70.0368 19.974 69.9588 19.902L71.2998 17.643C71.3718 17.697 71.5098 17.784 71.7138 17.904C71.9238 18.024 72.1788 18.15 72.4788 18.282C72.7788 18.408 73.0968 18.516 73.4328 18.606C73.7748 18.696 74.1108 18.741 74.4408 18.741C74.9928 18.741 75.4068 18.636 75.6828 18.426C75.9588 18.21 76.0968 17.928 76.0968 17.58C76.0968 17.322 76.0098 17.091 75.8358 16.887C75.6618 16.683 75.4008 16.491 75.0528 16.311C74.7048 16.125 74.2698 15.93 73.7478 15.726C73.2258 15.516 72.7368 15.261 72.2808 14.961C71.8308 14.661 71.4648 14.286 71.1828 13.836C70.9008 13.386 70.7598 12.828 70.7598 12.162C70.7598 11.496 70.9458 10.92 71.3178 10.434C71.6958 9.942 72.1908 9.564 72.8028 9.3C73.4208 9.036 74.0808 8.904 74.7828 8.904ZM83.2261 24.744H80.5171V13.611H83.2531V14.691C83.3371 14.523 83.4961 14.34 83.7301 14.142C83.9701 13.938 84.2731 13.764 84.6391 13.62C85.0111 13.47 85.4311 13.395 85.8991 13.395C86.6191 13.395 87.2341 13.572 87.7441 13.926C88.2601 14.28 88.6561 14.754 88.9321 15.348C89.2081 15.936 89.3461 16.59 89.3461 17.31C89.3461 18.03 89.1991 18.687 88.9051 19.281C88.6111 19.869 88.1971 20.34 87.6631 20.694C87.1351 21.042 86.5111 21.216 85.7911 21.216C85.2751 21.216 84.8341 21.126 84.4681 20.946C84.1081 20.76 83.8231 20.556 83.6131 20.334C83.4091 20.106 83.2801 19.929 83.2261 19.803V24.744ZM86.6731 17.31C86.6731 16.974 86.5981 16.674 86.4481 16.41C86.2981 16.14 86.0941 15.93 85.8361 15.78C85.5841 15.624 85.2991 15.546 84.9811 15.546C84.6511 15.546 84.3541 15.624 84.0901 15.78C83.8321 15.93 83.6281 16.14 83.4781 16.41C83.3281 16.674 83.2531 16.974 83.2531 17.31C83.2531 17.646 83.3281 17.949 83.4781 18.219C83.6281 18.483 83.8321 18.69 84.0901 18.84C84.3541 18.99 84.6511 19.065 84.9811 19.065C85.2991 19.065 85.5841 18.99 85.8361 18.84C86.0941 18.69 86.2981 18.483 86.4481 18.219C86.5981 17.949 86.6731 17.646 86.6731 17.31ZM94.4564 18.633L96.4544 13.611H99.1364L94.0604 24.744H91.3244L93.0344 21L89.9474 13.611H92.6744L94.4564 18.633Z" fill="#5F61E4"/>
<path d="M109.078 8.904C109.816 8.904 110.461 8.985 111.013 9.147C111.565 9.309 112.009 9.48 112.345 9.66C112.681 9.84 112.885 9.96 112.957 10.02L111.661 12.189C111.565 12.117 111.4 12.012 111.166 11.874C110.938 11.736 110.665 11.613 110.347 11.505C110.035 11.397 109.708 11.343 109.366 11.343C108.904 11.343 108.529 11.427 108.241 11.595C107.959 11.757 107.818 12 107.818 12.324C107.818 12.546 107.893 12.747 108.043 12.927C108.199 13.101 108.433 13.269 108.745 13.431C109.063 13.587 109.465 13.758 109.951 13.944C110.395 14.106 110.812 14.298 111.202 14.52C111.592 14.742 111.934 15.006 112.228 15.312C112.528 15.612 112.765 15.96 112.939 16.356C113.113 16.752 113.2 17.202 113.2 17.706C113.2 18.306 113.077 18.828 112.831 19.272C112.585 19.71 112.249 20.073 111.823 20.361C111.403 20.649 110.923 20.862 110.383 21C109.849 21.144 109.294 21.216 108.718 21.216C107.902 21.216 107.17 21.123 106.522 20.937C105.88 20.751 105.361 20.55 104.965 20.334C104.569 20.118 104.332 19.974 104.254 19.902L105.595 17.643C105.667 17.697 105.805 17.784 106.009 17.904C106.219 18.024 106.474 18.15 106.774 18.282C107.074 18.408 107.392 18.516 107.728 18.606C108.07 18.696 108.406 18.741 108.736 18.741C109.288 18.741 109.702 18.636 109.978 18.426C110.254 18.21 110.392 17.928 110.392 17.58C110.392 17.322 110.305 17.091 110.131 16.887C109.957 16.683 109.696 16.491 109.348 16.311C109 16.125 108.565 15.93 108.043 15.726C107.521 15.516 107.032 15.261 106.576 14.961C106.126 14.661 105.76 14.286 105.478 13.836C105.196 13.386 105.055 12.828 105.055 12.162C105.055 11.496 105.241 10.92 105.613 10.434C105.991 9.942 106.486 9.564 107.098 9.3C107.716 9.036 108.376 8.904 109.078 8.904ZM117.521 24.744H114.812V13.611H117.548V14.691C117.632 14.523 117.791 14.34 118.025 14.142C118.265 13.938 118.568 13.764 118.934 13.62C119.306 13.47 119.726 13.395 120.194 13.395C120.914 13.395 121.529 13.572 122.039 13.926C122.555 14.28 122.951 14.754 123.227 15.348C123.503 15.936 123.641 16.59 123.641 17.31C123.641 18.03 123.494 18.687 123.2 19.281C122.906 19.869 122.492 20.34 121.958 20.694C121.43 21.042 120.806 21.216 120.086 21.216C119.57 21.216 119.129 21.126 118.763 20.946C118.403 20.76 118.118 20.556 117.908 20.334C117.704 20.106 117.575 19.929 117.521 19.803V24.744ZM120.968 17.31C120.968 16.974 120.893 16.674 120.743 16.41C120.593 16.14 120.389 15.93 120.131 15.78C119.879 15.624 119.594 15.546 119.276 15.546C118.946 15.546 118.649 15.624 118.385 15.78C118.127 15.93 117.923 16.14 117.773 16.41C117.623 16.674 117.548 16.974 117.548 17.31C117.548 17.646 117.623 17.949 117.773 18.219C117.923 18.483 118.127 18.69 118.385 18.84C118.649 18.99 118.946 19.065 119.276 19.065C119.594 19.065 119.879 18.99 120.131 18.84C120.389 18.69 120.593 18.483 120.743 18.219C120.893 17.949 120.968 17.646 120.968 17.31ZM130.758 21V19.803C130.704 19.923 130.566 20.097 130.344 20.325C130.128 20.553 129.84 20.76 129.48 20.946C129.12 21.126 128.7 21.216 128.22 21.216C127.5 21.216 126.87 21.042 126.33 20.694C125.79 20.34 125.37 19.869 125.07 19.281C124.77 18.687 124.62 18.03 124.62 17.31C124.62 16.59 124.77 15.936 125.07 15.348C125.37 14.754 125.79 14.28 126.33 13.926C126.87 13.572 127.5 13.395 128.22 13.395C128.682 13.395 129.087 13.47 129.435 13.62C129.783 13.764 130.065 13.938 130.281 14.142C130.497 14.34 130.647 14.523 130.731 14.691V13.611H133.449V21H130.758ZM127.302 17.31C127.302 17.646 127.38 17.949 127.536 18.219C127.692 18.483 127.899 18.69 128.157 18.84C128.421 18.99 128.712 19.065 129.03 19.065C129.36 19.065 129.651 18.99 129.903 18.84C130.155 18.69 130.353 18.483 130.497 18.219C130.647 17.949 130.722 17.646 130.722 17.31C130.722 16.974 130.647 16.674 130.497 16.41C130.353 16.14 130.155 15.93 129.903 15.78C129.651 15.624 129.36 15.546 129.03 15.546C128.712 15.546 128.421 15.624 128.157 15.78C127.899 15.93 127.692 16.14 127.536 16.41C127.38 16.674 127.302 16.974 127.302 17.31ZM139.19 19.065C139.532 19.065 139.814 19.008 140.036 18.894C140.258 18.774 140.408 18.678 140.486 18.606L141.737 20.46C141.641 20.538 141.476 20.64 141.242 20.766C141.008 20.886 140.714 20.991 140.36 21.081C140.012 21.171 139.613 21.216 139.163 21.216C138.317 21.216 137.573 21.057 136.931 20.739C136.289 20.415 135.788 19.959 135.428 19.371C135.074 18.783 134.897 18.093 134.897 17.301C134.897 16.503 135.074 15.813 135.428 15.231C135.788 14.649 136.289 14.199 136.931 13.881C137.573 13.557 138.317 13.395 139.163 13.395C139.607 13.395 140.003 13.443 140.351 13.539C140.705 13.629 141.002 13.734 141.242 13.854C141.482 13.968 141.65 14.067 141.746 14.151L140.468 16.023C140.426 15.981 140.348 15.921 140.234 15.843C140.126 15.765 139.985 15.696 139.811 15.636C139.637 15.576 139.43 15.546 139.19 15.546C138.896 15.546 138.62 15.621 138.362 15.771C138.11 15.921 137.906 16.128 137.75 16.392C137.594 16.656 137.516 16.959 137.516 17.301C137.516 17.643 137.594 17.949 137.75 18.219C137.906 18.483 138.11 18.69 138.362 18.84C138.62 18.99 138.896 19.065 139.19 19.065ZM145.028 17.886C145.046 18.15 145.13 18.384 145.28 18.588C145.43 18.792 145.637 18.954 145.901 19.074C146.171 19.188 146.489 19.245 146.855 19.245C147.203 19.245 147.515 19.209 147.791 19.137C148.073 19.065 148.316 18.975 148.52 18.867C148.73 18.759 148.892 18.648 149.006 18.534L150.068 20.226C149.918 20.388 149.705 20.547 149.429 20.703C149.159 20.853 148.802 20.976 148.358 21.072C147.914 21.168 147.353 21.216 146.675 21.216C145.859 21.216 145.133 21.063 144.497 20.757C143.861 20.451 143.36 20.001 142.994 19.407C142.628 18.813 142.445 18.087 142.445 17.229C142.445 16.509 142.601 15.861 142.913 15.285C143.231 14.703 143.69 14.244 144.29 13.908C144.89 13.566 145.613 13.395 146.459 13.395C147.263 13.395 147.959 13.542 148.547 13.836C149.141 14.13 149.597 14.568 149.915 15.15C150.239 15.726 150.401 16.446 150.401 17.31C150.401 17.358 150.398 17.454 150.392 17.598C150.392 17.742 150.386 17.838 150.374 17.886H145.028ZM147.827 16.455C147.821 16.263 147.77 16.074 147.674 15.888C147.578 15.696 147.434 15.54 147.242 15.42C147.05 15.294 146.804 15.231 146.504 15.231C146.204 15.231 145.949 15.291 145.739 15.411C145.535 15.525 145.379 15.675 145.271 15.861C145.163 16.047 145.103 16.245 145.091 16.455H147.827ZM155.126 13.395C155.612 13.395 156.056 13.437 156.458 13.521C156.86 13.599 157.196 13.689 157.466 13.791C157.742 13.893 157.919 13.977 157.997 14.043L157.106 15.654C156.992 15.57 156.779 15.462 156.467 15.33C156.161 15.198 155.819 15.132 155.441 15.132C155.153 15.132 154.91 15.177 154.712 15.267C154.514 15.351 154.415 15.486 154.415 15.672C154.415 15.858 154.523 16.008 154.739 16.122C154.961 16.23 155.279 16.326 155.693 16.41C156.053 16.482 156.419 16.596 156.791 16.752C157.163 16.908 157.472 17.139 157.718 17.445C157.97 17.745 158.096 18.147 158.096 18.651C158.096 19.167 157.985 19.593 157.763 19.929C157.541 20.265 157.247 20.526 156.881 20.712C156.515 20.898 156.119 21.027 155.693 21.099C155.267 21.177 154.853 21.216 154.451 21.216C153.887 21.216 153.395 21.165 152.975 21.063C152.561 20.961 152.225 20.844 151.967 20.712C151.709 20.58 151.529 20.475 151.427 20.397L152.309 18.597C152.465 18.729 152.72 18.879 153.074 19.047C153.428 19.209 153.803 19.29 154.199 19.29C154.583 19.29 154.88 19.233 155.09 19.119C155.3 19.005 155.405 18.855 155.405 18.669C155.405 18.519 155.354 18.399 155.252 18.309C155.15 18.219 155.006 18.141 154.82 18.075C154.634 18.009 154.409 17.949 154.145 17.895C153.905 17.847 153.65 17.772 153.38 17.67C153.11 17.568 152.855 17.43 152.615 17.256C152.375 17.076 152.18 16.851 152.03 16.581C151.88 16.311 151.805 15.984 151.805 15.6C151.805 15.108 151.964 14.7 152.282 14.376C152.6 14.052 153.011 13.809 153.515 13.647C154.019 13.479 154.556 13.395 155.126 13.395Z" fill="#FF8B2E"/>
</svg>
